<?xml version="1.0" encoding="utf-8"?>
<!-- Generator: Adobe Illustrator 22.0.0, SVG Export Plug-In . SVG Version: 6.00 Build 0)  -->
<svg version="1.1" id="Layer_2" xmlns="http://www.w3.org/2000/svg" xmlns:xlink="http://www.w3.org/1999/xlink" x="0px" y="0px"
	 viewBox="0 0 252.3 303.2" style="enable-background:new 0 0 252.3 303.2;" xml:space="preserve">
<style type="text/css">
	.st0{fill:#FF5528;}
	.st1{fill:#9DB1B9;}
	.st2{fill:#E8E8E6;}
</style>
<path class="st0" d="M227.3,106.6h10.3c7.3,0,13.2,5.9,13.2,13.2v181.9H1.5V119.8c0-7.3,5.9-13.2,13.2-13.2h11
	c7.3,0,13.2-5.9,13.2-13.2V14.7c0-7.3,5.9-13.2,13.2-13.2h149c7.3,0,13.2,5.9,13.2,13.2v78.8C214.2,100.7,220.1,106.6,227.3,106.6z"
	/>
<path class="st1" d="M250.8,123v25.3H78H52.7H1.5V123h51.2V1.5H78V123h94.7V1.5H198V123H250.8z"/>
<path class="st2" d="M252.3,149.8H0v-28.3h51.2V0h28.3v121.5h91.7V0h28.3v121.5h52.8V149.8z M3,146.8h246.3v-22.3h-52.8V3h-22.3
	v121.5H76.5V3H54.2v121.5H3V146.8z"/>
<path d="M237.7,105.1h-10.3c-6.4,0-11.7-5.2-11.7-11.7V14.7C215.7,6.6,209.1,0,201,0h-45.6h-51.8H52c-8.1,0-14.7,6.6-14.7,14.7v78.8
	c0,6.4-5.2,11.7-11.7,11.7h-11c-8.1,0-14.7,6.6-14.7,14.7v183.4h98.5h9.7h42h9.7h92.4V119.8C252.3,111.7,245.8,105.1,237.7,105.1z
	 M151.6,3l-22.1,89.1L107.4,3H151.6z M98.5,300.2H3V119.8c0-6.4,5.2-11.7,11.7-11.7h11c8.1,0,14.7-6.6,14.7-14.7V14.7
	C40.3,8.2,45.6,3,52,3h41.8c6.2,0,11.6,4.2,13.1,10.2L128,98.3h-0.5V281c0,10.6-8.6,19.2-19.2,19.2H98.5z M119.3,300.2
	c4.6-2.7,8.1-6.9,9.9-12c1.8,5.1,5.3,9.3,9.9,12H119.3z M249.3,300.2h-89.4h-9.7c-10.6,0-19.2-8.6-19.2-19.2V98.5l21.5-86.7
	c1.3-5.2,5.9-8.8,11.3-8.8H201c6.4,0,11.7,5.2,11.7,11.7v78.8c0,8.1,6.6,14.7,14.7,14.7h10.3c6.4,0,11.7,5.2,11.7,11.7V300.2z"/>
</svg>
