<?xml version="1.0" encoding="utf-8"?>
<!-- Generator: Adobe Illustrator 27.9.0, SVG Export Plug-In . SVG Version: 6.00 Build 0)  -->
<svg version="1.1" id="Layer_1" xmlns="http://www.w3.org/2000/svg" xmlns:xlink="http://www.w3.org/1999/xlink" x="0px" y="0px"
	 viewBox="0 0 4000 1358.28" style="enable-background:new 0 0 4000 1358.28;" xml:space="preserve">
<style type="text/css">
	.st0{fill:#FFC809;}
	.st1{fill:#FFFFFF;}
	.st2{fill:#1C75BC;}
</style>
<g>
	<polygon class="st0" points="565.62,754.79 583.85,761.48 610.47,680.93 570.91,700.53 	"/>
	<path class="st0" d="M697.56,760.04l-11.36-36.2l-22.18,67.11l83.66,30.75l-46.67-55.39C699.45,764.47,698.28,762.34,697.56,760.04
		z"/>
	<path class="st0" d="M1221.71,916.56L863.14,295.5c-26.43-45.78-73.76-73.1-126.62-73.1s-100.19,27.33-126.62,73.1L251.33,916.56
		c-26.43,45.78-26.43,100.43,0,146.21c26.43,45.78,73.76,73.1,126.62,73.1h717.14c52.86,0,100.19-27.33,126.62-73.1
		C1248.14,1017,1248.14,962.34,1221.71,916.56z M1190.59,1044.8c-19.93,34.52-55.63,55.14-95.5,55.14H377.95
		c-39.87,0-75.57-20.61-95.5-55.14c-19.93-34.52-19.93-75.75,0-110.27l358.57-621.06c19.93-34.52,55.63-55.14,95.5-55.14
		c39.87,0,75.57,20.61,95.5,55.14l358.57,621.06C1210.52,969.06,1210.52,1010.28,1190.59,1044.8z"/>
	<path class="st0" d="M802.9,330.29c-13.85-24-38.67-38.32-66.37-38.32c-27.71,0-52.52,14.33-66.37,38.32L311.58,951.35
		c-13.85,24-13.85,52.65,0,76.64c13.85,24,38.67,38.32,66.37,38.32h717.14c27.71,0,52.52-14.33,66.37-38.32
		c13.85-24,13.85-52.65,0-76.64L802.9,330.29z M649.6,549.77c7.74-23.43,33.01-36.15,56.45-28.41
		c23.43,7.74,36.15,33.01,28.41,56.45c-7.74,23.43-33.01,36.15-56.45,28.41C654.58,598.47,641.86,573.2,649.6,549.77z
		 M1046.3,996.46H847.43v-44.34l16.13-32.25l7.58-10.34l-27.26-26.65l2.08-5.51l-183.89-67.59l51.48,88.79
		c1.59,2.74,2.43,5.84,2.45,9l0.56,88.78c0.06,10.04-8.02,18.23-18.06,18.29c-0.04,0-0.08,0-0.12,0c-9.99,0-18.11-8.06-18.17-18.06
		l-0.53-83.96l-49.82-85.92c-1.06-0.2-2.13-0.45-3.18-0.8l-21.06-6.96l-16.38,73.76c-0.35,1.59-0.92,3.12-1.67,4.55l-47.03,88.98
		c-3.26,6.17-9.56,9.69-16.08,9.69c-2.86,0-5.77-0.68-8.48-2.11c-8.87-4.69-12.27-15.69-7.57-24.56l45.89-86.82l20.97-94.42
		c0.2-0.88,0.47-1.71,0.78-2.53c0.16-0.65,0.32-1.3,0.54-1.95l1.53-4.64l-19.47-7.16c-3.16,2.61-7.19,4.17-11.53,4.17
		c-0.59,0-1.18-0.03-1.78-0.09c-9.99-0.97-17.3-9.86-16.33-19.85l6.72-69.01c0.61-6.25,4.4-11.74,10.02-14.53l88.03-43.61
		c9.29-7.52,22.09-10.31,34.28-6.28l12.05,3.98c15.71,5.19,25.48,20.06,24.92,35.8l26.16,83.35l49.55,58.8
		c6.47,7.68,5.49,19.14-2.19,25.61c-0.88,0.74-1.81,1.38-2.77,1.93l76.67,28.18l2.19-5.81l25.17-1.14l-4.06-21.76l24.79-29.89
		c0,0,13.72,2.86,35.27,14.58c6.08,3.31,35.27,4.23,35.27,4.23s22.16,26.75,24.19,29.23c7.59,9.29,11.09,39.02,11.09,39.02
		l34.27,23.47l14.11,26.2L1046.3,996.46z"/>
	<path d="M832.02,313.47c-19.93-34.52-55.63-55.14-95.5-55.14c-39.87,0-75.57,20.61-95.5,55.14L282.45,934.53
		c-19.93,34.52-19.93,75.75,0,110.27c19.93,34.52,55.63,55.14,95.5,55.14h717.14c39.87,0,75.57-20.61,95.5-55.14
		c19.93-34.52,19.93-75.75,0-110.27L832.02,313.47z M1161.47,1027.99c-13.85,24-38.67,38.32-66.37,38.32H377.95
		c-27.71,0-52.52-14.33-66.37-38.32c-13.85-24-13.85-52.65,0-76.64l358.57-621.06c13.85-24,38.67-38.32,66.37-38.32
		c27.71,0,52.52,14.33,66.37,38.32l358.57,621.06C1175.32,975.34,1175.32,1003.99,1161.47,1027.99z"/>
	<ellipse transform="matrix(0.8095 -0.5872 0.5872 0.8095 -199.1842 513.7718)" cx="692.03" cy="563.79" rx="44.68" ry="44.68"/>
	<path d="M1006.33,888.67c0,0-3.5-29.73-11.09-39.02c-2.03-2.48-24.19-29.23-24.19-29.23s-29.19-0.92-35.27-4.23
		c-21.55-11.72-35.27-14.58-35.27-14.58l-24.79,29.89l4.06,21.76l-25.17,1.14l-2.19,5.81l-76.67-28.18
		c0.97-0.55,1.89-1.19,2.77-1.93c7.68-6.47,8.66-17.94,2.19-25.61l-49.55-58.8L705,662.33c0.57-15.74-9.21-30.61-24.92-35.8
		l-12.05-3.98c-12.19-4.03-24.99-1.24-34.28,6.28l-88.03,43.61c-5.62,2.79-9.41,8.28-10.02,14.53l-6.72,69.01
		c-0.97,9.99,6.34,18.88,16.33,19.85c0.6,0.06,1.19,0.09,1.78,0.09c4.33,0,8.36-1.56,11.53-4.17l19.47,7.16l-1.53,4.64
		c-0.21,0.65-0.38,1.3-0.54,1.95c-0.31,0.82-0.59,1.65-0.78,2.53l-20.97,94.42l-45.89,86.82c-4.69,8.88-1.3,19.87,7.57,24.56
		c2.71,1.43,5.61,2.11,8.48,2.11c6.52,0,12.83-3.52,16.08-9.69l47.03-88.98c0.76-1.44,1.32-2.97,1.67-4.55l16.38-73.76l21.06,6.96
		c1.06,0.35,2.12,0.6,3.18,0.8l49.82,85.92l0.53,83.96c0.06,10,8.19,18.06,18.17,18.06c0.04,0,0.08,0,0.12,0
		c10.04-0.06,18.12-8.25,18.06-18.29L716,907.56c-0.02-3.16-0.86-6.27-2.45-9l-51.48-88.79l183.89,67.59l-2.08,5.51l27.26,26.65
		l-7.58,10.34l-16.13,32.25v44.34h198.88l8.4-58.12l-14.11-26.2L1006.33,888.67z M583.85,761.48l-18.22-6.7l5.28-54.26l39.56-19.6
		L583.85,761.48z M664.02,790.95l22.18-67.11l11.36,36.2c0.72,2.3,1.89,4.43,3.44,6.27l46.67,55.39L664.02,790.95z"/>
</g>
<g>
	<polygon points="1829.1,754.79 1847.33,761.48 1873.95,680.93 1834.38,700.53 	"/>
	<path d="M1961.04,760.04l-11.36-36.2l-22.18,67.11l83.66,30.75l-46.67-55.39C1962.93,764.47,1961.76,762.34,1961.04,760.04z"/>
	<path d="M2485.19,916.56L2126.62,295.5c-26.43-45.78-73.76-73.1-126.62-73.1c-52.86,0-100.19,27.33-126.62,73.1l-358.57,621.06
		c-26.43,45.78-26.43,100.43,0,146.21c26.43,45.78,73.76,73.1,126.62,73.1h717.14c52.86,0,100.19-27.33,126.62-73.1
		C2511.62,1017,2511.62,962.34,2485.19,916.56z M2454.07,1044.8c-19.93,34.52-55.63,55.14-95.5,55.14h-717.14
		c-39.87,0-75.57-20.61-95.5-55.14c-19.93-34.52-19.93-75.75,0-110.27l358.57-621.06c19.93-34.52,55.63-55.14,95.5-55.14
		s75.57,20.61,95.5,55.14l358.57,621.06C2474,969.06,2474,1010.28,2454.07,1044.8z"/>
	<path d="M2066.37,330.29c-13.85-24-38.67-38.32-66.37-38.32s-52.52,14.33-66.37,38.32l-358.57,621.06
		c-13.85,24-13.85,52.65,0,76.64c13.85,24,38.67,38.32,66.37,38.32h717.14c27.71,0,52.52-14.33,66.37-38.32
		c13.85-24,13.85-52.65,0-76.64L2066.37,330.29z M1913.08,549.77c7.74-23.43,33.01-36.15,56.45-28.41
		c23.43,7.74,36.15,33.01,28.41,56.45c-7.74,23.43-33.01,36.15-56.45,28.41C1918.05,598.47,1905.34,573.2,1913.08,549.77z
		 M2309.78,996.46H2110.9v-44.34l16.12-32.25l7.58-10.34l-27.26-26.65l2.08-5.51l-183.89-67.59l51.48,88.79
		c1.59,2.74,2.43,5.84,2.45,9l0.56,88.78c0.06,10.04-8.02,18.23-18.06,18.29c-0.04,0-0.08,0-0.12,0c-9.99,0-18.11-8.06-18.17-18.06
		l-0.53-83.96l-49.82-85.92c-1.06-0.2-2.13-0.45-3.18-0.8l-21.06-6.96l-16.38,73.76c-0.35,1.59-0.92,3.12-1.67,4.55L1804,986.24
		c-3.26,6.17-9.56,9.69-16.08,9.69c-2.86,0-5.77-0.68-8.48-2.11c-8.87-4.69-12.27-15.69-7.57-24.56l45.89-86.82l20.97-94.42
		c0.19-0.88,0.47-1.71,0.78-2.53c0.16-0.65,0.32-1.3,0.54-1.95l1.53-4.64l-19.47-7.16c-3.16,2.61-7.19,4.17-11.53,4.17
		c-0.59,0-1.18-0.03-1.78-0.09c-9.99-0.97-17.3-9.86-16.33-19.85l6.72-69.01c0.61-6.25,4.4-11.74,10.02-14.53l88.03-43.61
		c9.29-7.52,22.09-10.31,34.28-6.28l12.05,3.98c15.71,5.19,25.48,20.06,24.92,35.8l26.16,83.35l49.55,58.8
		c6.47,7.68,5.49,19.14-2.19,25.61c-0.88,0.74-1.81,1.38-2.77,1.93l76.67,28.18l2.19-5.81l25.17-1.14l-4.06-21.76l24.79-29.89
		c0,0,13.72,2.86,35.27,14.58c6.08,3.31,35.27,4.23,35.27,4.23s22.16,26.75,24.19,29.23c7.59,9.29,11.09,39.02,11.09,39.02
		l34.27,23.47l14.11,26.2L2309.78,996.46z"/>
	<path class="st1" d="M2095.5,313.47c-19.93-34.52-55.63-55.14-95.5-55.14s-75.57,20.61-95.5,55.14l-358.57,621.06
		c-19.93,34.52-19.93,75.75,0,110.27c19.93,34.52,55.63,55.14,95.5,55.14h717.14c39.87,0,75.56-20.61,95.5-55.14
		c19.93-34.52,19.93-75.75,0-110.27L2095.5,313.47z M2424.94,1027.99c-13.85,24-38.67,38.32-66.37,38.32h-717.14
		c-27.71,0-52.52-14.33-66.37-38.32c-13.85-24-13.85-52.65,0-76.64l358.57-621.06c13.85-24,38.67-38.32,66.37-38.32
		s52.52,14.33,66.37,38.32l358.57,621.06C2438.8,975.34,2438.8,1003.99,2424.94,1027.99z"/>
	
		<ellipse transform="matrix(0.8095 -0.5872 0.5872 0.8095 41.5637 1255.6611)" class="st1" cx="1955.51" cy="563.79" rx="44.68" ry="44.68"/>
	<path class="st1" d="M2269.81,888.67c0,0-3.5-29.73-11.09-39.02c-2.03-2.48-24.19-29.23-24.19-29.23s-29.19-0.92-35.27-4.23
		c-21.55-11.72-35.27-14.58-35.27-14.58l-24.79,29.89l4.06,21.76l-25.17,1.14l-2.19,5.81l-76.67-28.18
		c0.97-0.55,1.89-1.19,2.77-1.93c7.68-6.47,8.66-17.94,2.19-25.61l-49.55-58.8l-26.16-83.35c0.57-15.74-9.21-30.61-24.92-35.8
		l-12.05-3.98c-12.19-4.03-24.99-1.24-34.28,6.28l-88.03,43.61c-5.62,2.79-9.41,8.28-10.02,14.53l-6.72,69.01
		c-0.97,9.99,6.34,18.88,16.33,19.85c0.6,0.06,1.19,0.09,1.78,0.09c4.33,0,8.36-1.56,11.53-4.17l19.47,7.16l-1.53,4.64
		c-0.21,0.65-0.38,1.3-0.54,1.95c-0.31,0.82-0.59,1.65-0.78,2.53l-20.97,94.42l-45.89,86.82c-4.69,8.88-1.3,19.87,7.57,24.56
		c2.71,1.43,5.61,2.11,8.48,2.11c6.52,0,12.83-3.52,16.08-9.69l47.03-88.98c0.76-1.44,1.32-2.97,1.67-4.55l16.38-73.76l21.06,6.96
		c1.06,0.35,2.12,0.6,3.18,0.8l49.82,85.92l0.53,83.96c0.06,10,8.19,18.06,18.17,18.06c0.04,0,0.08,0,0.12,0
		c10.04-0.06,18.12-8.25,18.06-18.29l-0.56-88.78c-0.02-3.16-0.86-6.27-2.45-9l-51.48-88.79l183.89,67.59l-2.08,5.51l27.26,26.65
		l-7.58,10.34l-16.12,32.25v44.34h198.88l8.4-58.12l-14.11-26.2L2269.81,888.67z M1847.33,761.48l-18.22-6.7l5.28-54.26l39.56-19.6
		L1847.33,761.48z M1927.5,790.95l22.18-67.11l11.36,36.2c0.72,2.3,1.89,4.43,3.44,6.27l46.67,55.39L1927.5,790.95z"/>
</g>
<g>
	<polygon class="st2" points="3092.58,754.79 3110.81,761.48 3137.42,680.93 3097.86,700.53 	"/>
	<path class="st2" d="M3224.52,760.04l-11.36-36.2l-22.18,67.11l83.66,30.75l-46.67-55.39
		C3226.41,764.47,3225.24,762.34,3224.52,760.04z"/>
	<path class="st2" d="M3748.67,916.56L3390.1,295.5c-26.43-45.78-73.76-73.1-126.62-73.1c-52.86,0-100.19,27.33-126.62,73.1
		l-358.57,621.06c-26.43,45.78-26.43,100.43,0,146.21c26.43,45.78,73.76,73.1,126.62,73.1h717.14c52.86,0,100.19-27.33,126.62-73.1
		C3775.1,1017,3775.1,962.34,3748.67,916.56z M3717.55,1044.8c-19.93,34.52-55.63,55.14-95.5,55.14h-717.14
		c-39.87,0-75.57-20.61-95.5-55.14c-19.93-34.52-19.93-75.75,0-110.27l358.57-621.06c19.93-34.52,55.63-55.14,95.5-55.14
		c39.87,0,75.57,20.61,95.5,55.14l358.57,621.06C3737.48,969.06,3737.48,1010.28,3717.55,1044.8z"/>
	<path class="st2" d="M3329.85,330.29c-13.85-24-38.67-38.32-66.37-38.32s-52.52,14.33-66.37,38.32l-358.57,621.06
		c-13.85,24-13.85,52.65,0,76.64c13.85,24,38.67,38.32,66.37,38.32h717.14c27.71,0,52.52-14.33,66.37-38.32
		c13.85-24,13.85-52.65,0-76.64L3329.85,330.29z M3176.56,549.77c7.74-23.43,33.01-36.15,56.45-28.41
		c23.43,7.74,36.15,33.01,28.41,56.45c-7.74,23.43-33.01,36.15-56.45,28.41C3181.53,598.47,3168.81,573.2,3176.56,549.77z
		 M3573.26,996.46h-198.88v-44.34l16.12-32.25l7.58-10.34l-27.26-26.65l2.08-5.51l-183.89-67.59l51.48,88.79
		c1.59,2.74,2.43,5.84,2.45,9l0.56,88.78c0.06,10.04-8.02,18.23-18.06,18.29c-0.04,0-0.08,0-0.12,0c-9.99,0-18.11-8.06-18.17-18.06
		l-0.53-83.96l-49.82-85.92c-1.06-0.2-2.13-0.45-3.18-0.8l-21.06-6.96l-16.38,73.76c-0.35,1.59-0.92,3.12-1.67,4.55l-47.03,88.98
		c-3.26,6.17-9.56,9.69-16.08,9.69c-2.86,0-5.77-0.68-8.48-2.11c-8.87-4.69-12.27-15.69-7.57-24.56l45.89-86.82l20.97-94.42
		c0.2-0.88,0.47-1.71,0.78-2.53c0.16-0.65,0.32-1.3,0.54-1.95l1.53-4.64l-19.47-7.16c-3.16,2.61-7.19,4.17-11.53,4.17
		c-0.59,0-1.18-0.03-1.78-0.09c-9.99-0.97-17.3-9.86-16.33-19.85l6.72-69.01c0.61-6.25,4.4-11.74,10.02-14.53l88.03-43.61
		c9.29-7.52,22.09-10.31,34.28-6.28l12.05,3.98c15.71,5.19,25.48,20.06,24.92,35.8l26.16,83.35l49.55,58.8
		c6.47,7.68,5.49,19.14-2.19,25.61c-0.88,0.74-1.81,1.38-2.77,1.93l76.67,28.18l2.19-5.81l25.17-1.14l-4.06-21.76l24.79-29.89
		c0,0,13.72,2.86,35.27,14.58c6.08,3.31,35.27,4.23,35.27,4.23s22.16,26.75,24.19,29.23c7.59,9.29,11.09,39.02,11.09,39.02
		l34.27,23.47l14.11,26.2L3573.26,996.46z"/>
	<path class="st1" d="M3358.98,313.47c-19.93-34.52-55.63-55.14-95.5-55.14c-39.87,0-75.56,20.61-95.5,55.14l-358.57,621.06
		c-19.93,34.52-19.93,75.75,0,110.27c19.93,34.52,55.63,55.14,95.5,55.14h717.14c39.87,0,75.57-20.61,95.5-55.14
		c19.93-34.52,19.93-75.75,0-110.27L3358.98,313.47z M3688.42,1027.99c-13.85,24-38.67,38.32-66.37,38.32h-717.14
		c-27.71,0-52.52-14.33-66.37-38.32c-13.85-24-13.85-52.65,0-76.64l358.57-621.06c13.85-24,38.67-38.32,66.37-38.32
		s52.52,14.33,66.37,38.32l358.57,621.06C3702.28,975.34,3702.28,1003.99,3688.42,1027.99z"/>
	
		<ellipse transform="matrix(0.8095 -0.5872 0.5872 0.8095 282.3116 1997.5504)" class="st1" cx="3218.98" cy="563.79" rx="44.68" ry="44.68"/>
	<path class="st1" d="M3533.28,888.67c0,0-3.5-29.73-11.09-39.02c-2.03-2.48-24.19-29.23-24.19-29.23s-29.19-0.92-35.27-4.23
		c-21.55-11.72-35.27-14.58-35.27-14.58l-24.79,29.89l4.06,21.76l-25.17,1.14l-2.19,5.81l-76.67-28.18c0.97-0.55,1.9-1.19,2.77-1.93
		c7.68-6.47,8.66-17.94,2.19-25.61l-49.55-58.8l-26.16-83.35c0.57-15.74-9.21-30.61-24.92-35.8l-12.05-3.98
		c-12.19-4.03-24.99-1.24-34.28,6.28l-88.03,43.61c-5.62,2.79-9.41,8.28-10.02,14.53l-6.72,69.01c-0.97,9.99,6.34,18.88,16.33,19.85
		c0.6,0.06,1.19,0.09,1.78,0.09c4.33,0,8.36-1.56,11.53-4.17l19.47,7.16l-1.53,4.64c-0.21,0.65-0.38,1.3-0.54,1.95
		c-0.31,0.82-0.59,1.65-0.78,2.53l-20.97,94.42l-45.89,86.82c-4.69,8.88-1.3,19.87,7.57,24.56c2.71,1.43,5.61,2.11,8.48,2.11
		c6.52,0,12.83-3.52,16.08-9.69l47.03-88.98c0.76-1.44,1.32-2.97,1.67-4.55l16.38-73.76l21.06,6.96c1.06,0.35,2.12,0.6,3.18,0.8
		l49.82,85.92l0.53,83.96c0.06,10,8.19,18.06,18.17,18.06c0.04,0,0.08,0,0.12,0c10.04-0.06,18.12-8.25,18.06-18.29l-0.56-88.78
		c-0.02-3.16-0.86-6.27-2.45-9l-51.48-88.79l183.89,67.59l-2.08,5.51l27.26,26.65l-7.58,10.34l-16.12,32.25v44.34h198.88l8.4-58.12
		l-14.11-26.2L3533.28,888.67z M3110.81,761.48l-18.22-6.7l5.28-54.26l39.56-19.6L3110.81,761.48z M3190.98,790.95l22.18-67.11
		l11.36,36.2c0.72,2.3,1.89,4.43,3.44,6.27l46.67,55.39L3190.98,790.95z"/>
</g>
</svg>
